<?xml version="1.0" encoding="UTF-8" standalone="no"?>
<!-- Created with Inkscape (http://www.inkscape.org/) -->

<svg
   version="1.1"
   id="svg879"
  
   xml:space="preserve"
   width="682.66669"
   height="682.66669"
   viewBox="0 0 682.66669 682.66669"
   xmlns="http://www.w3.org/2000/svg"
   xmlns:svg="http://www.w3.org/2000/svg"><defs
     id="defs883"><clipPath
       clipPathUnits="userSpaceOnUse"
       id="clipPath893"><path
         d="M 0,512 H 512 V 0 H 0 Z"
         id="path891" /></clipPath></defs><g
     id="g885"
     transform="matrix(1.3333333,0,0,-1.3333333,0,682.66667)"><g
       id="g887"><g
         id="g889"
         clip-path="url(#clipPath893)"><g
           id="g895"
           transform="translate(56,45.7822)"><path
             d="m 0,0 v 420.436 c 0,19.68 16.103,35.782 35.781,35.782 h 346.328 c 9.84,0 17.891,-8.051 17.891,-17.891 V 53.672 c 0,-9.839 -8.051,-17.89 -17.891,-17.89 H 35.781 C 16.102,35.782 0,19.681 0,0 0,-19.681 16.103,-35.782 35.781,-35.782 h 346.328 c 9.84,0 17.891,8.051 17.891,17.891 v 71.563"
             style="fill:none;stroke:#ffff;stroke-width:20;stroke-linecap:round;stroke-linejoin:round;stroke-miterlimit:22.926;stroke-dasharray:none;stroke-opacity:1"
             id="path897" /></g><g
           id="g899"
           transform="translate(415.9985,78.6255)"><path
             d="M 0,0 V -65.687"
             style="fill:none;stroke:#ffff;stroke-width:20;stroke-linecap:round;stroke-linejoin:round;stroke-miterlimit:22.926;stroke-dasharray:none;stroke-opacity:1"
             id="path901" /></g><g
           id="g903"
           transform="translate(96.0015,336.7856)"><path
             d="M 0,0 V 162.611 M 0,-252.618 V -90"
             style="fill:none;stroke:#ffff;stroke-width:20;stroke-linecap:round;stroke-linejoin:round;stroke-miterlimit:22.926;stroke-dasharray:none;stroke-opacity:1"
             id="path905" /></g><g
           id="g907"
           transform="translate(205.0918,394.145)"><path
             d="m 0,0 c 9.546,0 18.454,-2.728 25.992,-7.442 7.619,17.234 24.862,29.261 44.917,29.261 20.055,0 37.298,-12.027 44.917,-29.261 7.538,4.714 16.446,7.442 25.992,7.442 27.112,0 49.091,-21.979 49.091,-49.091 0,-23.363 -16.321,-42.911 -38.182,-47.872 V -221.09 c 0,-2.999 -2.455,-5.454 -5.454,-5.454 H -5.455 c -3,0 -5.454,2.454 -5.454,5.454 v 124.127 c -21.862,4.961 -38.182,24.509 -38.182,47.872 C -49.091,-21.979 -27.112,0 0,0 Z"
             style="fill:none;stroke:#ffff;stroke-width:20;stroke-linecap:round;stroke-linejoin:round;stroke-miterlimit:2.613;stroke-dasharray:none;stroke-opacity:1"
             id="path909" /></g><g
           id="g911"
           transform="translate(194.1826,207.603)"><path
             d="M 0,0 H 163.636"
             style="fill:none;stroke:#ffff;stroke-width:20;stroke-linecap:round;stroke-linejoin:round;stroke-miterlimit:2.613;stroke-dasharray:none;stroke-opacity:1"
             id="path913" /></g><g
           id="g915"
           transform="translate(96.0015,291.7896)"><path
             d="M 0,0 V -0.007"
             style="fill:none;stroke:#ffff;stroke-width:20;stroke-linecap:round;stroke-linejoin:round;stroke-miterlimit:2.613;stroke-dasharray:none;stroke-opacity:1"
             id="path917" /></g></g></g></g></svg>
