<svg height="512" fill='#ffff' viewBox="0 0 64 64" width="512" xmlns="http://www.w3.org/2000/svg"><g id="Layer_14" data-name="Layer 14"><path d="m13 49h-2v-25h42v18h-2v-16h-38z"/><path d="m53 34h-42v-10h42zm-40-2h38v-6h-38z"/><path d="m11 28h42v2h-42z"/><path d="m49 22h-34v-8h34zm-32-2h30v-4h-30z"/><path d="m1 61h62v2h-62z"/><path d="m23 63h-16v-16h16zm-14-2h12v-12h-12z"/><path d="m18 58h1v1h-1z"/><path d="m16 58h1v1h-1z"/><path d="m56 63a4 4 0 1 1 4-4 4 4 0 0 1 -4 4zm0-6a2 2 0 1 0 2 2 2 2 0 0 0 -2-2z"/><path d="m37 63a4 4 0 1 1 4-4 4 4 0 0 1 -4 4zm0-6a2 2 0 1 0 2 2 2 2 0 0 0 -2-2z"/><path d="m49 53h-16v-16h16zm-14-2h12v-12h-12z"/><path d="m44 48h1v1h-1z"/><path d="m42 48h1v1h-1z"/><path d="m18 54h-6v-7h6zm-4-2h2v-3h-2z"/><path d="m44 44h-6v-7h6zm-4-2h2v-3h-2z"/><path d="m60.63 52h-6.63a1 1 0 0 1 -1-1v-4a1 1 0 0 1 1-1h5.13a1 1 0 0 1 .937.648l1.5 4a1 1 0 0 1 -.937 1.352zm-5.63-2h4.187l-.75-2h-3.437z"/><path d="m62 60h-3v-2h1v-5.818l-2.693-7.182h-5.307v8h-20v5h2v2h-4v-9h20v-8h8.693l3.307 8.818z"/><path d="m40 58h13v2h-13z"/><circle cx="37" cy="59" r="1"/><circle cx="56" cy="59" r="1"/><path d="m57 42v-26.382l-25.008-12.504-25.992 12.514v46.372a1 1 0 0 1 -2 0v-47a1 1 0 0 1 .566-.9l27-13a1 1 0 0 1 .881.007l26 13a1 1 0 0 1 .553.893v27z"/></g></svg>