<svg id="Outline_and_Glyph" viewBox="0 0 32 32" fill='#ffff' xmlns="http://www.w3.org/2000/svg"><path d="m5 16.592h5.833c1.654 0 3-1.346 3-3v-5.832c0-1.654-1.346-3-3-3h-5.833c-1.654 0-3 1.346-3 3v5.832c0 1.654 1.346 3 3 3zm-1-8.832c0-.552.449-1 1-1h5.833c.551 0 1 .448 1 1v5.832c0 .552-.449 1-1 1h-5.833c-.551 0-1-.448-1-1z"/><path d="m27 2h-8.592c-1.654 0-3 1.346-3 3v8.592c0 1.654 1.346 3 3 3h8.592c1.654 0 3-1.346 3-3v-8.592c0-1.654-1.346-3-3-3zm1 11.592c0 .552-.449 1-1 1h-8.592c-.551 0-1-.448-1-1v-8.592c0-.552.449-1 1-1h8.592c.551 0 1 .448 1 1z"/><path d="m5 30h5.833c1.654 0 3-1.346 3-3v-5.833c0-1.654-1.346-3-3-3h-5.833c-1.654 0-3 1.346-3 3v5.833c0 1.654 1.346 3 3 3zm-1-8.833c0-.552.449-1 1-1h5.833c.551 0 1 .448 1 1v5.833c0 .552-.449 1-1 1h-5.833c-.551 0-1-.448-1-1z"/><path d="m18.408 30h5.833c1.654 0 3-1.346 3-3v-5.833c0-1.654-1.346-3-3-3h-5.833c-1.654 0-3 1.346-3 3v5.833c0 1.654 1.346 3 3 3zm-1-8.833c0-.552.449-1 1-1h5.833c.551 0 1 .448 1 1v5.833c0 .552-.449 1-1 1h-5.833c-.551 0-1-.448-1-1z"/></svg>