<svg id="a" height="512" fill='#ffff' viewBox="0 0 512 512" width="512" xmlns="http://www.w3.org/2000/svg" data-name="Layer 4"><path d="m494.191 308.534h-204.323c-3.226-17.523-9.957-29.307-20.066-35.027-6.819-3.859-13.662-4.048-18.555-3.385-2.294-8.415-8.422-22.521-24.441-30.031-14.159-6.638-25.238-3.263-32.066 1.68-8.115-10.829-24.091-23.512-46.649-20.147-14.357 2.142-24.513 11.139-27.167 24.068-3.108 15.146 4.326 31.854 18.777 43.38-3.658 4.768-6.579 11.526-5.374 19.462h-116.518c-6.595 0-11.978 5.358-12 11.944-.07 20.686 3.321 72.881 36.228 110.689 22.617 25.985 54.557 39.709 94.984 40.857 2.882 20.306 20.373 35.975 41.463 35.975h155.035c21.089 0 38.58-15.669 41.462-35.975 40.427-1.148 72.367-14.872 94.984-40.857 32.907-37.808 36.298-90.003 36.228-110.689-.022-6.586-5.406-11.944-12-11.944zm-341.742-15.373c1.641-1.165 2.588-3.075 2.523-5.086s-1.134-3.856-2.846-4.913c-16.248-10.025-21.47-25.201-19.447-35.059 1.645-8.015 7.747-13.205 17.182-14.611 25.804-3.859 37.907 19.466 38.401 20.441.952 1.918 2.837 3.211 4.974 3.347 2.135.141 4.167-.851 5.355-2.632.784-1.121 8.092-10.738 23.122-3.692 16.907 7.925 18.828 26.231 18.899 26.98.165 1.919 1.217 3.652 2.87 4.643 1.651.99 3.656 1.137 5.426.379.317-.129 7.853-3.125 15.109 1.063 6.365 3.674 11.016 12.096 13.626 24.513h-40.452c-7.094-3.664-42.862-22.558-65.1-42.231-2.482-2.197-6.274-1.965-8.469.518-2.196 2.482-1.964 6.274.518 8.469 14.387 12.728 33.603 24.852 48.098 33.244h-65.615c-2.507-8.91 4.91-14.7 5.827-15.373zm181.068 202.838h-155.034c-14.425 0-26.497-10.273-29.282-23.887h213.599c-2.785 13.614-14.856 23.887-29.282 23.887zm127.395-72.711c-21.268 24.435-52.056 36.824-91.507 36.824h-226.81c-39.452 0-70.239-12.389-91.507-36.824-17.422-20.016-25.783-45.142-29.76-66.016h368.933c3.313 0 6-2.687 6-6s-2.687-6-6-6h-370.834c-1.399-10.944-1.635-19.817-1.619-24.738l476.383-.016c.017 4.927-.22 13.805-1.62 24.754h-56.312c-3.313 0-6 2.687-6 6s2.687 6 6 6h54.411c-3.977 20.876-12.338 46.001-29.759 66.016z"/><path d="m364.45 269.273c3.298-.048 15.593-1.869 33.438-11.312 21.573-11.991 34.05-30.123 36.09-52.438 0-.009.002-.018.003-.027.003-.031.007-.061.01-.091 4.134-46.08-22.287-76.857-23.414-78.145-.023-.026-.05-.049-.073-.074-.096-.105-.196-.206-.299-.304-1.335-1.297-3.163-1.983-5.013-1.697-1.876.29-3.448 1.373-4.326 3.02-.003.004-.005.009-.007.013-.061.114-.127.224-.181.344-.431.765-6.376 10.798-30.848 29.328-3.339 2.528-6.408 5.122-9.232 7.771-35.734-11.922-76.564 6.576-78.344 7.396-2.052.935-3.454 3.078-3.485 5.333-.016.813-.263 20.153 10.161 41.055 9.666 19.38 30.613 43.756 75.521 49.83zm-44.369-94.501 3.768 19.863c-9.397-5.056-18.767-10.616-25.573-14.774 5.758-1.849 13.358-3.88 21.806-5.088zm-20.198 39.743c-4.571-9.029-6.849-17.841-7.987-24.476 11.734 7.18 31.071 18.514 45.835 24.717.387 12.735 4.997 26.043 13.768 39.767-24.026-6.325-41.355-19.737-51.617-40.008zm92.476 32.79c-5.207 2.923-10.38 5.058-14.843 6.596 4.544-8.528 8.488-17.012 11.917-25.31 5.406-1.434 16.999-4.968 29.975-11.732-4.28 12.531-13.328 22.742-27.049 30.446zm29.894-45.875c-10.045 6.255-20.052 10.387-27.35 12.912 9.446-26.587 13.708-50.157 15.619-65.333 6.181 11.662 13.054 30.006 11.731 52.421zm-45.179-33.973c9.302-7.044 16.149-12.991 21.182-17.846-3.109 22.676-11.462 62.961-33.65 102.89-11.342-16.055-16.258-31.106-14.585-44.821 1.761-14.431 10.862-27.964 27.053-40.223zm-25.6 8.095c-6.592 8.374-10.837 17.252-12.688 26.569-.474-.215-.945-.427-1.426-.651l-5.261-27.738c6.391-.169 12.968.323 19.376 1.82z"/><path d="m51.206 286.665c24.591 0 44.598-20.007 44.598-44.598s-20.006-44.598-44.598-44.598-44.598 20.007-44.598 44.598 20.007 44.598 44.598 44.598zm0-77.196c17.975 0 32.598 14.623 32.598 32.598s-14.623 32.598-32.598 32.598-32.598-14.624-32.598-32.598 14.624-32.598 32.598-32.598z"/><path d="m51.207 260.066c9.925 0 18-8.075 18-18s-8.075-18-18-18-18 8.075-18 18 8.075 18 18 18zm0-24c3.308 0 6 2.691 6 6s-2.691 6-6 6-6-2.691-6-6 2.692-6 6-6z"/><path d="m220.753 208.443c9.925 0 17.999-8.075 17.999-18s-8.074-18-17.999-18-18 8.075-18 18 8.075 18 18 18zm0-24c3.308 0 5.999 2.691 5.999 6s-2.691 6-5.999 6-6-2.691-6-6 2.691-6 6-6z"/><path d="m473.595 149.683c-9.925 0-18 8.075-18 18s8.075 18 18 18 17.999-8.075 17.999-18-8.074-18-17.999-18zm0 24c-3.309 0-6-2.691-6-6s2.691-6 6-6 5.999 2.691 5.999 6-2.691 6-5.999 6z"/><path d="m461.595 119.288c24.591 0 44.598-20.006 44.598-44.598s-20.007-44.598-44.598-44.598-44.598 20.006-44.598 44.598 20.006 44.598 44.598 44.598zm0-77.195c17.975 0 32.598 14.623 32.598 32.598s-14.624 32.598-32.598 32.598-32.598-14.623-32.598-32.598 14.623-32.598 32.598-32.598z"/><path d="m461.595 92.69c9.925 0 18-8.075 18-18s-8.075-18-18-18-18 8.075-18 18 8.075 18 18 18zm0-24c3.308 0 6 2.691 6 6s-2.691 6-6 6-6-2.691-6-6 2.692-6 6-6z"/><path d="m124.975 105.565c-20.017 8.184-26.462 20.193-28.345 28.826-2.793 12.807 2.762 25.796 9.506 32.988 8.411 8.97 20.705 6.5 29.216 3.284 1.028 11.338 2.245 28.677 19.063 28.721 5.758 0 11.376-2.329 15.443-6.409 11.737-11.889.463-24.898-6.68-33.689 8.322-3.667 18.829-10.521 18.546-22.813-.227-9.856-5.364-23.017-16.329-30.198-7.391-4.84-20.402-8.894-40.42-.709zm33.846 10.748c7.28 4.768 10.757 13.936 10.906 20.436.125 5.418-5.795 10.015-18.099 14.052-.028.009-.057.019-.085.029-.006 0-.015.005-.021.007-1.416.491-2.533 1.46-3.229 2.666-1.166 1.938-1.058 4.645.322 6.509 1.801 2.62 3.901 5.191 5.933 7.678 8.535 10.445 9.872 13.745 6.813 16.813-1.853 1.858-4.386 2.891-7.045 2.88-4.331-.046-5.689-3.337-6.918-16.769-.297-3.248-.604-6.607-1.172-9.781-.332-1.857-1.529-3.445-3.214-4.295s-3.682-.853-5.373-.017c-11.601 5.734-19.043 6.602-22.75 2.649-4.447-4.743-8.389-13.72-6.535-22.223 1.847-8.467 8.966-15.289 21.162-20.275 12.195-4.987 22.055-5.108 29.305-.359z"/><path d="m324.676 77.922c-.208.281-.412.558-.623.843-6.549 8.835-16.447 22.188-4.462 33.125 4.309 3.937 10.143 6.001 15.954 5.662 16.198-.936 16.932-17.54 17.417-28.527.016-.355.032-.7.048-1.05 3.807 1.237 8.335 2.298 12.9 2.298 5.805 0 11.66-1.713 16.128-6.952 6.397-7.501 11.334-20.738 7.941-33.399-2.287-8.535-9.292-20.226-29.671-27.458-20.38-7.232-33.188-2.572-40.343 2.613-10.615 7.69-15.126 21.077-14.888 30.934.297 12.298 11.118 18.644 19.599 21.912zm2.329-43.128c7.018-5.085 16.873-5.428 29.29-1.022 12.417 4.407 19.85 10.885 22.093 19.256 2.252 8.406-1.262 17.559-5.48 22.505-3.52 4.125-11 3.607-22.871-1.583-3.564-1.665-8.065.948-8.371 4.876-.402 3.151-.551 6.463-.692 9.669-.595 13.475-1.796 16.827-6.121 17.077-2.621.144-5.233-.776-7.172-2.545-3.199-2.92-2.019-6.279 6.014-17.115 1.942-2.62 3.95-5.329 5.642-8.073 2.123-3.33.277-7.946-3.531-8.937-12.473-3.452-18.6-7.764-18.731-13.182-.157-6.5 2.884-15.82 9.932-20.926z"/><path d="m100.841 74.944c18.747.137 37.004-10.864 45.466-27.704 6.282-12.153 7.455-26.026 3.304-39.062-1.006-3.158-4.38-4.9-7.538-3.896l-86.173 27.444c-1.516.483-2.778 1.548-3.509 2.962-.73 1.414-.87 3.06-.387 4.576 6.931 21.761 27.13 35.681 48.837 35.681zm16.539-50.204c-.139 2.276-.739 4.521-1.818 6.608-2.037 3.941-5.487 6.853-9.714 8.199-6.709 2.138-13.781-.24-17.96-5.415l29.493-9.392zm-41.387 13.18c5.109 8.932 14.666 14.413 24.833 14.413 2.869 0 5.787-.436 8.663-1.352 7.281-2.319 13.224-7.335 16.733-14.123 2.571-4.975 3.604-10.465 3.063-15.91l10.281-3.274c1.295 8.19-.04 16.551-3.918 24.055-4.811 9.306-12.957 16.181-22.938 19.36-18.663 5.943-38.552-2.867-47.013-19.89l10.297-3.279z"/><path d="m469.466 225.289c-2.015-.75-4.277-.366-5.93 1.009-8.197 6.815-12.182 17.557-10.399 28.032s9.096 19.293 19.086 23.014c.681.253 1.389.377 2.093.377 1.38 0 2.742-.476 3.837-1.386 8.198-6.816 12.183-17.557 10.4-28.032s-9.096-19.293-19.086-23.014zm3.613 39.158c-4.255-2.692-7.255-7.092-8.112-12.13s.518-10.182 3.643-14.13c4.255 2.692 7.255 7.092 8.113 12.13.857 5.038-.519 10.182-3.644 14.13z"/><path d="m220.729 124.591c2.015.418 4.047.622 6.064.622 8.434 0 16.625-3.562 22.34-9.955 7.083-7.921 9.423-19.136 6.108-29.269-.668-2.043-2.379-3.573-4.484-4.009-10.441-2.167-21.322 1.411-28.405 9.333-7.082 7.921-9.422 19.137-6.107 29.269.668 2.043 2.379 3.573 4.484 4.009zm10.569-25.28c3.407-3.81 8.287-5.939 13.322-5.955.545 5.005-1.026 10.094-4.432 13.903-3.407 3.81-8.287 5.939-13.322 5.955-.545-5.005 1.026-10.093 4.432-13.903z"/><path d="m51.349 161.548c.082.003.164.005.245.005 2.056 0 3.977-1.055 5.078-2.805 5.676-9.024 6.128-20.471 1.181-29.875-4.948-9.404-14.638-15.515-25.29-15.95-2.152-.091-4.179.981-5.324 2.801-5.675 9.024-6.127 20.472-1.18 29.875 4.947 9.404 14.638 15.515 25.29 15.949zm-15.594-36.1c4.881 1.238 9.099 4.488 11.478 9.011s2.669 9.84.924 14.563c-4.88-1.237-9.098-4.488-11.478-9.01-2.38-4.523-2.669-9.84-.925-14.563z"/><path d="m479.136 460.798c-2.343-2.343-6.143-2.343-8.485 0s-2.343 6.142 0 8.485l7.09 7.09c1.171 1.171 2.707 1.757 4.243 1.757s3.071-.586 4.243-1.757c2.343-2.343 2.343-6.142 0-8.485l-7.09-7.09z"/><path d="m493.478 438.381h-10.026c-3.313 0-6 2.687-6 6s2.687 6 6 6h10.026c3.313 0 6-2.687 6-6s-2.687-6-6-6z"/><path d="m453.712 468.12c-3.313 0-6 2.687-6 6v10.027c0 3.313 2.687 6 6 6s6-2.687 6-6v-10.027c0-3.313-2.687-6-6-6z"/><circle cx="413.261" cy="351.272" r="6"/></svg>